<svg width="192" height="192" viewBox="0 0 192 192" fill="none" xmlns="http://www.w3.org/2000/svg">
<path d="M40.6667 56H57.3333H157.333C166.5 56 174 48.8 174 40C174 31.2 166.5 24 157.333 24H57.3333H40.6667C31.5 24 24 31.2 24 40C24 48.8 31.5 56 40.6667 56Z" fill="#BF0085"/>
<path d="M157.333 80H132.333H40.6667C31.5 80 24 87.2 24 96C24 104.8 31.5 112 40.6667 112H132.333H157.333C166.5 112 174 104.8 174 96C174 87.2 166.5 80 157.333 80Z" fill="#B400DB"/>
<path d="M157.333 136H107.333H40.6667C31.5 136 24 143.2 24 152C24 160.8 31.5 168 40.6667 168H107.333H157.333C166.5 168 174 160.8 174 152C174 143.2 166.5 136 157.333 136Z" fill="#BF0085"/>
</svg>
