<svg width="542" height="562" viewBox="0 0 542 562" fill="none" xmlns="http://www.w3.org/2000/svg">
<path d="M351.6 509.3C348.7 516.5 345.9 524.5 343.9 531.8C342.1 538.7 341 544.9 341.4 549.4C341.9 554.5 345.9 558.6 351 559C372 561 425.4 564.6 426.8 558.7C429.1 548.8 415.6 540.8 406.1 536C401.6 533.8 398.2 530.1 396.2 525.7C395.1 523.3 394.4 520.6 394.3 517.9L351.6 509.3Z" fill="#FC6054"/>
<path d="M351.6 509.3C348.7 516.5 345.9 524.5 343.9 531.8C359.6 541.8 383.3 532.4 396.1 525.8C395 523.4 394.3 520.7 394.2 518L351.6 509.3Z" fill="#E64B38"/>
<path d="M392.5 556.1C378.4 556.1 361 554.9 346 550.4C345.5 550.2 345.2 549.7 345.3 549.2C345.5 548.7 346 548.4 346.5 548.5C377.5 557.9 419.2 552.7 419.6 552.7C420.2 552.6 420.6 553 420.7 553.6C420.8 554.1 420.4 554.6 419.8 554.7C419.8 554.7 408.1 556.1 392.5 556.1ZM399.7 536.5C399.4 536.5 399.1 536.4 398.9 536.1C398.6 535.7 398.7 535 399.1 534.7L403.6 531.5C404 531.2 404.7 531.3 405 531.7C405.3 532.1 405.2 532.8 404.8 533.1C400.2 536.3 400.3 536.5 399.7 536.5ZM402.7 539.5C402.4 539.1 402.5 538.4 402.9 538.1L407.4 534.9C407.8 534.6 408.5 534.7 408.8 535.1C409.1 535.5 409 536.2 408.6 536.5L404.1 539.7C403.6 540 403 539.9 402.7 539.5ZM395.1 532.6C394.8 532.2 394.9 531.5 395.3 531.2L399.8 528C400.2 527.7 400.9 527.8 401.2 528.2C401.5 528.6 401.4 529.3 401 529.6L396.5 532.8C396.1 533.2 395.4 533.1 395.1 532.6Z" fill="#112544"/>
<path d="M79.6 485.6C74 491 68.2 497.2 63.4 503C58.9 508.5 55.4 513.8 54 518C52.3 522.9 54.4 528.2 58.8 530.7C77.2 541 124.6 566 128.2 561.2C134.3 553.1 125.2 540.2 118.5 532.1C115.3 528.3 113.6 523.5 113.6 518.7C113.6 516 114 513.3 115 510.8L79.6 485.6Z" fill="#FC6054"/>
<path d="M79.6 485.6C74 491 68.2 497.2 63.4 503C73.7 518.5 99.2 519.5 113.6 518.7C113.6 516 114 513.3 115 510.8L79.6 485.6Z" fill="#E64B38"/>
<path d="M123.7 554.8C123.3 554.7 82.7 542.3 57.8 520.9C57.4 520.5 57.3 519.9 57.7 519.5C58.1 519.1 58.7 519 59.1 519.4C83.7 540.5 123.8 552.8 124.2 552.9C124.7 553.1 125 553.6 124.9 554.1C124.7 554.7 124.2 555 123.7 554.8ZM111.9 529.3C111.8 528.8 112.1 528.2 112.7 528.1L118.1 527C118.6 526.9 119.2 527.2 119.3 527.8C119.4 528.3 119.1 528.9 118.5 529L113.1 530.1C112.6 530.1 112 529.8 111.9 529.3ZM114 533.9C113.9 533.4 114.2 532.8 114.8 532.7L120.2 531.6C120.7 531.5 121.3 531.8 121.4 532.4C121.5 533 121.2 533.5 120.6 533.6L115.2 534.7C114.6 534.8 114.1 534.5 114 533.9ZM109.9 524.6C109.8 524.1 110.1 523.5 110.7 523.4L116.1 522.3C116.6 522.2 117.2 522.5 117.3 523.1C117.4 523.6 117.1 524.2 116.5 524.3L111.1 525.4C110.5 525.5 110 525.1 109.9 524.6ZM202.9 28.6001H192.8C192.2 28.6001 191.8 28.2001 191.8 27.6001C191.8 27.0001 192.2 26.6001 192.8 26.6001H202.9C203.5 26.6001 203.9 27.0001 203.9 27.6001C203.9 28.2001 203.4 28.6001 202.9 28.6001Z" fill="#112544"/>
<path d="M404.8 504.2C403.1 513.2 401.9 518.7 401.9 518.7C398.6 524.5 336.7 519.3 336.7 514.1C338.6 467 354.7 425.8 335.9 396.1C323.6 376.6 298.3 376.3 273.2 355.7C264.9 371.6 243.9 411.4 232.7 425.4C211.9 451.3 129.6 514.7 129.6 514.7C119.6 523.6 56.3 497.8 63.9 487.1C63.9 487.1 151 412.8 163.7 378.1C183.5 324 212 280.3 241.7 257.2L297.5 265.8L320.3 269.3C320.3 269.3 324.5 272.5 331.1 277.8C354 296.2 405.9 340.2 414.3 365.4C424 394.7 411 471.9 404.8 504.2Z" fill="#8D95FF"/>
<path d="M404.8 504.2C403.1 513.2 401.9 518.7 401.9 518.7C398.6 524.5 336.7 519.3 336.7 514.1C338.6 467 354.7 425.8 335.9 396.1C323.6 376.6 298.3 376.3 273.2 355.7C277.9 361.1 307.3 240.9 327.8 255.4C334.4 259.5 334 271.3 331.2 278C331 278.6 330.7 279.1 330.4 279.6C326.9 285.8 321 290.3 315.4 294.6C309.7 299 304 303.6 300.9 310.1C296.4 319.5 298.8 331.2 304.6 339.9C310.4 348.6 319 355 327.8 360.7C336.6 366.4 345.6 371.8 353 379.3C363.1 389.6 369.3 403.7 370 418.1C370.7 432.2 366.4 446 365.6 460.1C364.8 474.2 368.7 490.1 380.8 497.2C387.3 501 395 501.7 402.3 503.5C403.1 503.7 403.9 503.9 404.8 504.2Z" fill="#757BFF"/>
<path d="M242.9 310.2C242.9 309.6 243.3 309.2 243.9 309.2C259.1 308.6 263.6 299.4 260.9 290.5C260.7 290 261 289.4 261.6 289.3C262.1 289.1 262.7 289.4 262.8 290C265.8 300.2 260.4 310.6 244 311.2C243.3 311.2 242.9 310.8 242.9 310.2Z" fill="#112544"/>
<path d="M241 300.2C245.8 302.9 254.4 312.1 253.2 318.3C252.1 323.8 243.4 314.2 243.4 314.2C243.4 314.2 247.9 332 244.5 333.9C242.6 335 238.4 328 237.6 319.6C237.6 319.6 239.7 335.8 236.1 336.6C231.7 337.6 231.8 321.6 231.8 321.6C231.8 321.6 233.2 337.1 229.1 337.4C225.1 337.7 227 319.3 227 319.3C227 319.3 226.5 333.7 223 333.3C220.1 332.9 220.4 318.1 220.8 313C221.1 307.1 223.6 290.5 241 300.2Z" fill="#FCBBA4"/>
<path d="M261.8 377.1C261.3 376.8 261.2 376.2 261.4 375.7C291.8 323.6 302.3 273.1 302.4 272.6C302.5 272.1 303 271.7 303.6 271.8C304.1 271.9 304.5 272.4 304.4 273C304.3 273.5 293.7 324.3 263.1 376.7C262.9 377.2 262.3 377.4 261.8 377.1Z" fill="#112544"/>
<path d="M323.9 385.2C318.5 381.5 312.2 378.6 305.4 375.5C295.3 370.9 283.9 365.7 272.6 356.4C272.2 356.1 272.1 355.4 272.5 355C272.8 354.6 273.5 354.5 273.9 354.9C285 364 296.3 369.2 306.3 373.7C313.1 376.8 319.6 379.8 325.1 383.5C325.6 383.8 325.7 384.4 325.4 384.9C325 385.4 324.4 385.5 323.9 385.2Z" fill="#112544"/>
<path d="M234.5 263.4C234.5 263.4 235.9 221.8 249 201.2C249 201.2 238.3 127.5 306.3 133.4C356.2 137.7 380.2 164.4 380.2 164.4C380.2 164.4 364.7 284.7 348.7 292.3C331.4 300.5 305.1 259.1 275.4 270.3C245.5 281.5 234.5 263.4 234.5 263.4Z" fill="#66D3D8"/>
<path d="M484 206.5C447.3 260.1 409.9 294.3 376 285C372.8 284.1 369.7 282.7 366.9 280.7C331.5 256.9 322.3 159.8 322.3 159.8L343.4 141.8C405.4 159.4 401.1 228.2 401.1 228.2C405.7 221.2 411.3 214.8 417.2 209.1C437.3 189.7 461.1 178.6 461.1 178.6L484 206.5Z" fill="#66D3D8"/>
<path d="M484 206.5C447.3 260.1 409.9 294.3 376 285C372.8 284.1 369.7 282.7 366.9 280.7C369.5 278.5 372.9 276.9 376 275.7C385.8 271.9 396.2 269.5 405.8 265.3C415.4 261 424.6 254.6 429.3 245.2C434 235.8 433 223 425 216.2C422.4 214 419.7 212.9 417.2 209.1C437.3 189.7 461.1 178.6 461.1 178.6L484 206.5Z" fill="#47B6C3"/>
<path d="M520 264.6C519.5 265.1 518.9 265.4 518.2 265.5C469.4 271.2 428.3 219.9 400.9 135.4C400.4 133.8 401.4 132.1 403.1 131.8C431.7 126.7 454.1 106.2 460.4 99.8999C461.4 98.8999 463 98.7999 464.2 99.6999C480.8 113.2 500.3 123.9 522.5 131.9C523.3 132.2 523.9 132.8 524.2 133.5C543.7 185 549.9 231.3 520 264.6Z" fill="white"/>
<path d="M345.4 90.4999L345.6 90.3999C346 90.1999 346.3 90.6999 345.9 90.8999C345.8 90.8999 345.8 90.9999 345.7 90.9999C345.3 91.1999 345 90.6999 345.4 90.4999ZM337.2 92.2999C336.8 92.2999 336.4 92.1999 336 92.1999C335.8 92.1999 335.7 91.8999 335.8 91.6999C335.9 91.5999 336 91.5999 336.1 91.5999C336.5 91.5999 336.9 91.6999 337.3 91.6999C337.6 91.6999 337.6 92.2999 337.2 92.2999Z" fill="#FF987A"/>
<path d="M337.2 92.3002C337 92.3002 336.9 92.1002 336.9 92.0002C336.9 91.8002 337.1 91.7002 337.2 91.7002C338.3 91.8002 338.9 91.8002 339.1 91.8002C339.5 91.8002 339.5 92.4002 339.1 92.4002C338.6 92.4002 337.9 92.4002 337.2 92.3002Z" fill="#FF987A"/>
<path d="M339.4 92.3998C339 92.3998 339 91.7998 339.4 91.7998C339.7 91.7998 340.1 91.7998 340.4 91.7998C340.6 91.7998 340.7 91.8998 340.7 92.0998C340.7 92.2998 340.6 92.3998 340.4 92.3998C340.1 92.2998 339.7 92.3998 339.4 92.3998Z" fill="#FF987A"/>
<path d="M306.8 138.1C308.5 140.5 310.9 143.8 314.1 146.5C323 154.2 336.9 150.2 340.4 139L344.5 125.9C344.5 125.9 355.5 128.5 359.1 118C360.1 115.1 359.9 109.9 358.9 104C358.6 101.8 358.1 99.4998 357.6 97.0998C356.5 91.6998 355 86.0998 353.5 81.2998C350.4 82.8998 345.8 83.4998 339.1 82.4998C339.1 82.4998 335.1 90.9998 323.2 85.4998C323.2 85.4998 329.6 98.1998 317.9 102.2C315.8 102.9 313.5 102.4 311.2 101.2C311.8 104.7 313.1 106.1 315.6 108.9L305.9 130.7C305 133.1 305.3 135.9 306.8 138.1Z" fill="#FCBBA4"/>
<path d="M313.4 147.3C310.1 144.4 307.5 141 305.9 138.7C304.8 137.1 304.3 135.2 304.4 133.3C304.4 132.7 304.9 132.3 305.5 132.4C306.1 132.4 306.5 132.9 306.4 133.5C306.3 135 306.7 136.4 307.6 137.6C309.1 139.8 311.6 143.1 314.7 145.8C322.8 152.8 335.3 149.6 339.1 139.8C339.3 139.3 339.9 139 340.4 139.2C340.9 139.4 341.2 140 341 140.5C336.7 151.5 322.7 155.3 313.4 147.3Z" fill="#112544"/>
<path d="M305.4 134.4C304.8 134.4 304.4 133.9 304.5 133.3C304.6 132.2 304.8 131.2 305.3 130.2C305.5 129.7 306.1 129.5 306.6 129.7C307.1 129.9 307.3 130.5 307.1 131C306.8 131.8 306.6 132.6 306.5 133.4C306.4 134 306 134.4 305.4 134.4ZM358.2 62.3999C360.8 68.7999 362.6 86.1999 339.2 82.4999C339.2 82.4999 335.2 90.9999 323.3 85.4999C323.3 85.4999 329.7 98.1999 318 102.2C306.4 106.1 287 73.6999 309.5 69.9999C309.5 69.9999 307.9 62.7999 315.9 65.1999C315.9 65.1999 318.5 50.0999 333.5 58.7999C333.5 58.7999 350.8 44.1999 358.2 62.3999Z" fill="#112544"/>
<path d="M356.1 90.0998C355.3 87.0998 354.5 84.0998 353.7 81.2998C357.9 79.0998 359.5 75.1998 359.8 71.2998C362.1 75.1998 366.4 84.4998 356.1 90.0998ZM339.8 97.2998C340.1 98.4998 341 99.1998 341.9 98.9998C342.8 98.7998 343.2 97.6998 342.9 96.4998C342.6 95.3998 341.7 94.5998 340.8 94.7998C340 95.0998 339.5 96.1998 339.8 97.2998ZM353.5 94.7998C353.8 95.9998 354.7 96.6998 355.6 96.4998C356.5 96.2998 356.9 95.1998 356.6 93.9998C356.3 92.8998 355.4 92.0998 354.5 92.2998C353.6 92.5998 353.2 93.6998 353.5 94.7998ZM335.9 91.2998C335.1 91.7998 335.4 92.3998 336.3 92.4998C338.8 92.9998 341.4 92.2998 343.4 90.7998C344.1 90.2998 343.8 89.5998 343 89.3998C342.3 89.1998 341.4 89.3998 340.8 89.4998C339.1 89.8998 337.4 90.4998 335.9 91.2998Z" fill="#112544"/>
<path d="M349.6 88.0002C348.9 88.4002 349 89.0002 350 89.2002C352.5 89.7002 355.1 89.0002 357.1 87.5002C357.8 87.0002 357.5 86.3002 356.7 86.1002C356 85.9002 355.1 86.1002 354.5 86.2002C352.9 86.5002 351.2 87.1002 349.6 88.0002Z" fill="#112544"/>
<path d="M347.6 114.5C347.2 114.2 347.1 113.5 347.4 113.1C347.7 112.7 348.4 112.6 348.8 112.9C352.1 115.4 354.1 113.3 354.3 113C354.7 112.6 355.3 112.5 355.7 112.9C356.1 113.3 356.2 113.9 355.8 114.3C354.1 116.4 350.8 117 347.6 114.5Z" fill="#F97A5D"/>
<path d="M344.5 125.9C344.5 125.9 335.9 124.3 328.3 117.7C327.8 117.2 327 117.8 327.3 118.5C329 122.6 333.3 130.1 342.4 132.7L344.5 125.9Z" fill="#E2805D"/>
<path d="M307.1 102.1C308.4 107.1 312.8 110.6 316.8 109.9C320.9 109.2 323.1 104.5 321.8 99.5C320.5 94.5 316.1 91 312.1 91.7C308.1 92.3 305.8 97 307.1 102.1Z" fill="#FCBBA4"/>
<path d="M314.4 102.9L313.4 101C313.1 100.5 313.3 99.8998 313.8 99.5998C314.3 99.2998 314.9 99.4998 315.2 99.9998L316.2 101.9C316.5 102.4 316.3 103 315.8 103.3C315.3 103.5 314.7 103.3 314.4 102.9ZM348.9 104.8C348.9 104.2 349.3 103.8 349.8 103.7C349.9 103.7 352 103.5 352.1 103.4C352.5 102.4 350.1 98.5997 347.8 95.8997C347.4 95.4997 347.5 94.7998 347.9 94.4998C348.3 94.0998 349 94.1998 349.3 94.5998C350.6 96.1998 354.9 101.5 353.9 104.1C353.7 104.5 353.3 105.3 352.1 105.5C351.3 105.6 350.6 105.7 349.9 105.8C349.4 105.8 348.9 105.3 348.9 104.8Z" fill="#F97A5D"/>
<path d="M399.9 135.7C399.2 133.5 400.6 131.2 402.9 130.8C431.2 125.7 453.5 105.3 459.6 99.2001C461 97.8001 463.2 97.7001 464.7 99.0001C480.9 112.2 500.4 123 522.7 131C523.8 131.4 524.6 132.2 525 133.2C535.9 161.9 541.4 185.6 541.6 205.9C541.9 229.9 535 249.4 520.7 265.3C520.1 266 519.2 266.4 518.3 266.5C457.1 273.7 418.9 194.3 399.9 135.7ZM461 100.6C454.7 106.8 432.1 127.6 403.2 132.8C402.1 133 401.4 134.1 401.8 135.1C420.5 192.8 458.1 271.5 518 264.5C518.7 264.4 519.1 264 519.2 263.9C545.2 234.9 546.4 194.8 523.1 133.8C522.9 133.3 522.5 132.9 522 132.7C499.5 124.6 479.8 113.7 463.4 100.4C462.7 99.9001 461.7 99.9001 461 100.6Z" fill="#112544"/>
<path d="M229.7 46.6001V222.7C229.7 233.7 220.8 242.7 209.7 242.7H21.3C10.3 242.7 1.29999 233.8 1.29999 222.7V46.6001H229.7Z" fill="white"/>
<path d="M228.4 155.5C229 151.3 229.4 147.2 229.7 143V222.7C229.7 233.7 220.8 242.7 209.7 242.7H21.3C16.1 242.7 11.3 240.7 7.79999 237.4C53.2 232.2 99.8 244.9 145.1 237.5C168.8 233.6 192.4 223.6 207.7 205.5C219.6 191.5 225.9 173.5 228.4 155.5Z" fill="#E1E5FF"/>
<path d="M229.7 46.6V30C229.7 19 220.8 10 209.7 10H21.3C10.3 10 1.29999 18.9 1.29999 30V46.6H229.7Z" fill="#FFC25E"/>
<path d="M229.7 29.9999V46.5999H1.39999V39.9999H212.7C218.5 39.9999 223.2 35.2999 223.2 29.4999V23.2999C223.2 19.4999 222.1 15.8999 220.3 12.8999C225.9 16.4999 229.7 22.7999 229.7 29.9999Z" fill="#EFA130"/>
<path d="M209.7 243.7H21.3C9.69999 243.7 0.299988 234.3 0.299988 222.7V46.6001C0.299988 46.0001 0.699988 45.6001 1.29999 45.6001H229.6C230.2 45.6001 230.6 46.0001 230.6 46.6001V222.7C230.7 234.3 221.3 243.7 209.7 243.7ZM2.39999 47.6001V222.7C2.39999 233.2 10.9 241.7 21.4 241.7H209.8C220.3 241.7 228.8 233.2 228.8 222.7V47.6001H2.39999Z" fill="#112544"/>
<path d="M156.3 105.8C156.3 128.3 138.1 146.5 115.6 146.5C93.1 146.5 74.9 128.3 74.9 105.8C74.9 83.3001 93.1 65.1001 115.6 65.1001C138 65.1001 156.3 83.3001 156.3 105.8Z" fill="#E1E5FF"/>
<path d="M156.3 105.8C156.3 128.3 138.1 146.5 115.6 146.5C104.4 146.5 94.2 142 86.8 134.6C92.9 138.3 100.1 140.4 107.7 140.4C130.2 140.4 148.4 122.2 148.4 99.6999C148.4 88.3999 143.8 78.1999 136.4 70.8999C148.3 77.9999 156.3 90.8999 156.3 105.8Z" fill="#CCD2FF"/>
<path d="M179.2 169.6V185.4C179.2 187.7 177.3 189.6 175 189.6H56.1C53.8 189.6 51.9 187.7 51.9 185.4V169.6C51.9 167.3 53.8 165.4 56.1 165.4H174.9C177.3 165.4 179.2 167.3 179.2 169.6Z" fill="#E1E5FF"/>
<path d="M179.2 169.6V185.4C179.2 187.8 177.3 189.6 175 189.6H56.1C53.8 189.6 51.9 187.7 51.9 185.4C52.1 185.4 52.2 185.4 52.4 185.4H171.2C173.5 185.4 175.4 183.5 175.4 181.2V165.4C177.6 165.7 179.2 167.5 179.2 169.6Z" fill="#CCD2FF"/>
<path d="M229.7 47.6H1.39999C0.799994 47.6 0.399994 47.2 0.399994 46.6V30C0.399994 18.4 9.79999 9 21.4 9H209.8C221.4 9 230.8 18.4 230.8 30V46.6C230.7 47.1 230.3 47.6 229.7 47.6ZM2.39999 45.6H228.7V30C228.7 19.5 220.2 11 209.7 11H21.3C10.8 11 2.3 19.5 2.3 30V45.6H2.39999Z" fill="#112544"/>
<path d="M20.4 34.8002C23.051 34.8002 25.2 32.6512 25.2 30.0002C25.2 27.3492 23.051 25.2002 20.4 25.2002C17.749 25.2002 15.6 27.3492 15.6 30.0002C15.6 32.6512 17.749 34.8002 20.4 34.8002Z" fill="white"/>
<path d="M38 34.8002C40.651 34.8002 42.8 32.6512 42.8 30.0002C42.8 27.3492 40.651 25.2002 38 25.2002C35.349 25.2002 33.2 27.3492 33.2 30.0002C33.2 32.6512 35.349 34.8002 38 34.8002Z" fill="white"/>
<path d="M55.6 34.8002C58.251 34.8002 60.4 32.6512 60.4 30.0002C60.4 27.3492 58.251 25.2002 55.6 25.2002C52.949 25.2002 50.8 27.3492 50.8 30.0002C50.8 32.6512 52.949 34.8002 55.6 34.8002Z" fill="white"/>
<path d="M25.2 30C25.2 32.7 23 34.8 20.4 34.8C18.4 34.8 16.7 33.6 16 31.9C19.9 33.6 24 29.5 22.3 25.5C24 26.3 25.2 28 25.2 30ZM42.8 30C42.8 32.7 40.6 34.8 38 34.8C36 34.8 34.3 33.6 33.6 31.9C37.7 33.6 41.6 29.4 39.9 25.5C41.6 26.3 42.8 28 42.8 30ZM60.4 30C60.4 32.7 58.2 34.8 55.6 34.8C53.6 34.8 51.9 33.6 51.2 31.9C55.1 33.6 59.3 29.5 57.5 25.5C59.2 26.3 60.4 28 60.4 30Z" fill="#E1E5FF"/>
<path d="M20.4 35.8998C17.2 35.8998 14.6 33.2998 14.6 30.0998C14.6 26.8998 17.2 24.2998 20.4 24.2998C23.6 24.2998 26.2 26.8998 26.2 30.0998C26.2 33.2998 23.6 35.8998 20.4 35.8998ZM20.4 26.1998C18.3 26.1998 16.6 27.8998 16.6 29.9998C16.6 32.0998 18.3 33.7998 20.4 33.7998C22.5 33.7998 24.2 32.0998 24.2 29.9998C24.2 27.8998 22.5 26.1998 20.4 26.1998ZM38 35.8998C34.8 35.8998 32.2 33.2998 32.2 30.0998C32.2 26.8998 34.8 24.2998 38 24.2998C41.2 24.2998 43.8 26.8998 43.8 30.0998C43.8 33.2998 41.2 35.8998 38 35.8998ZM38 26.1998C35.9 26.1998 34.2 27.8998 34.2 29.9998C34.2 32.0998 35.9 33.7998 38 33.7998C40.1 33.7998 41.8 32.0998 41.8 29.9998C41.8 27.8998 40.1 26.1998 38 26.1998ZM55.6 35.8998C52.4 35.8998 49.8 33.2998 49.8 30.0998C49.8 26.8998 52.4 24.2998 55.6 24.2998C58.8 24.2998 61.4 26.8998 61.4 30.0998C61.4 33.2998 58.8 35.8998 55.6 35.8998ZM55.6 26.1998C53.5 26.1998 51.8 27.8998 51.8 29.9998C51.8 32.0998 53.5 33.7998 55.6 33.7998C57.7 33.7998 59.4 32.0998 59.4 29.9998C59.4 27.8998 57.7 26.1998 55.6 26.1998Z" fill="#112544"/>
<path d="M143.7 208.8V224.6C143.7 226.9 141.8 228.8 139.5 228.8H91.6C89.3 228.8 87.4 226.9 87.4 224.6V208.8C87.4 206.5 89.3 204.6 91.6 204.6H139.5C141.8 204.6 143.7 206.5 143.7 208.8Z" fill="#FC6054"/>
<path d="M143.7 208.8V224.6C143.7 227 141.8 228.8 139.5 228.8H91.6C89.3 228.8 87.4 226.9 87.4 224.6H135.3C137.6 224.6 139.5 222.7 139.5 220.4V204.6C141.9 204.6 143.7 206.5 143.7 208.8Z" fill="#E64B38"/>
<path d="M174.9 190.7H56.1C53.2 190.7 50.9 188.3 50.9 185.5V169.7C50.9 166.8 53.3 164.5 56.1 164.5H174.9C177.8 164.5 180.1 166.9 180.1 169.7V185.5C180.2 188.3 177.8 190.7 174.9 190.7ZM56.1 166.4C54.3 166.4 52.9 167.9 52.9 169.6V185.4C52.9 187.2 54.4 188.6 56.1 188.6H174.9C176.7 188.6 178.1 187.1 178.1 185.4V169.6C178.1 167.8 176.6 166.4 174.9 166.4H56.1Z" fill="#112544"/>
<path d="M71.6 177.5C71.6 179.8 69.7 181.7 67.4 181.7C65.1 181.7 63.2 179.8 63.2 177.5C63.2 175.2 65.1 173.3 67.4 173.3C69.7 173.3 71.6 175.2 71.6 177.5Z" fill="white"/>
<path d="M67.4 182.7C64.5 182.7 62.2 180.4 62.2 177.5C62.2 174.6 64.5 172.3 67.4 172.3C70.3 172.3 72.6 174.6 72.6 177.5C72.6 180.4 70.3 182.7 67.4 182.7ZM67.4 174.3C65.6 174.3 64.2 175.7 64.2 177.5C64.2 179.3 65.6 180.7 67.4 180.7C69.2 180.7 70.6 179.3 70.6 177.5C70.6 175.7 69.2 174.3 67.4 174.3Z" fill="#112544"/>
<path d="M87.7 177.5C87.7 179.8 85.8 181.7 83.5 181.7C81.2 181.7 79.3 179.8 79.3 177.5C79.3 175.2 81.2 173.3 83.5 173.3C85.8 173.3 87.7 175.2 87.7 177.5Z" fill="white"/>
<path d="M83.4 182.7C80.5 182.7 78.2 180.4 78.2 177.5C78.2 174.6 80.5 172.3 83.4 172.3C86.3 172.3 88.6 174.6 88.6 177.5C88.7 180.4 86.3 182.7 83.4 182.7ZM83.4 174.3C81.6 174.3 80.2 175.7 80.2 177.5C80.2 179.3 81.6 180.7 83.4 180.7C85.2 180.7 86.6 179.3 86.6 177.5C86.7 175.7 85.2 174.3 83.4 174.3Z" fill="#112544"/>
<path d="M103.7 177.5C103.7 179.8 101.8 181.7 99.5 181.7C97.2 181.7 95.3 179.8 95.3 177.5C95.3 175.2 97.2 173.3 99.5 173.3C101.8 173.3 103.7 175.2 103.7 177.5Z" fill="white"/>
<path d="M99.5 182.7C96.6 182.7 94.3 180.4 94.3 177.5C94.3 174.6 96.6 172.3 99.5 172.3C102.4 172.3 104.7 174.6 104.7 177.5C104.7 180.4 102.4 182.7 99.5 182.7ZM99.5 174.3C97.7 174.3 96.3 175.7 96.3 177.5C96.3 179.3 97.7 180.7 99.5 180.7C101.3 180.7 102.7 179.3 102.7 177.5C102.7 175.7 101.3 174.3 99.5 174.3Z" fill="#112544"/>
<path d="M119.7 177.5C119.7 179.8 117.8 181.7 115.5 181.7C113.2 181.7 111.3 179.8 111.3 177.5C111.3 175.2 113.2 173.3 115.5 173.3C117.9 173.3 119.7 175.2 119.7 177.5Z" fill="white"/>
<path d="M115.5 182.7C112.6 182.7 110.3 180.4 110.3 177.5C110.3 174.6 112.6 172.3 115.5 172.3C118.4 172.3 120.7 174.6 120.7 177.5C120.7 180.4 118.4 182.7 115.5 182.7ZM115.5 174.3C113.7 174.3 112.3 175.7 112.3 177.5C112.3 179.3 113.7 180.7 115.5 180.7C117.3 180.7 118.7 179.3 118.7 177.5C118.7 175.7 117.3 174.3 115.5 174.3Z" fill="#112544"/>
<path d="M135.8 177.5C135.8 179.8 133.9 181.7 131.6 181.7C129.3 181.7 127.4 179.8 127.4 177.5C127.4 175.2 129.3 173.3 131.6 173.3C133.9 173.3 135.8 175.2 135.8 177.5Z" fill="white"/>
<path d="M131.6 182.7C128.7 182.7 126.4 180.4 126.4 177.5C126.4 174.6 128.7 172.3 131.6 172.3C134.5 172.3 136.8 174.6 136.8 177.5C136.8 180.4 134.5 182.7 131.6 182.7ZM131.6 174.3C129.8 174.3 128.4 175.7 128.4 177.5C128.4 179.3 129.8 180.7 131.6 180.7C133.4 180.7 134.8 179.3 134.8 177.5C134.8 175.7 133.4 174.3 131.6 174.3Z" fill="#112544"/>
<path d="M151.8 177.5C151.8 179.8 149.9 181.7 147.6 181.7C145.3 181.7 143.4 179.8 143.4 177.5C143.4 175.2 145.3 173.3 147.6 173.3C150 173.3 151.8 175.2 151.8 177.5Z" fill="white"/>
<path d="M147.6 182.7C144.7 182.7 142.4 180.4 142.4 177.5C142.4 174.6 144.7 172.3 147.6 172.3C150.5 172.3 152.8 174.6 152.8 177.5C152.8 180.4 150.5 182.7 147.6 182.7ZM147.6 174.3C145.8 174.3 144.4 175.7 144.4 177.5C144.4 179.3 145.8 180.7 147.6 180.7C149.4 180.7 150.8 179.3 150.8 177.5C150.8 175.7 149.4 174.3 147.6 174.3Z" fill="#112544"/>
<path d="M167.9 177.5C167.9 179.8 166 181.7 163.7 181.7C161.4 181.7 159.5 179.8 159.5 177.5C159.5 175.2 161.4 173.3 163.7 173.3C166 173.3 167.9 175.2 167.9 177.5Z" fill="white"/>
<path d="M163.7 182.7C160.8 182.7 158.5 180.4 158.5 177.5C158.5 174.6 160.8 172.3 163.7 172.3C166.6 172.3 168.9 174.6 168.9 177.5C168.9 180.4 166.6 182.7 163.7 182.7ZM163.7 174.3C161.9 174.3 160.5 175.7 160.5 177.5C160.5 179.3 161.9 180.7 163.7 180.7C165.5 180.7 166.9 179.3 166.9 177.5C166.9 175.7 165.4 174.3 163.7 174.3Z" fill="#112544"/>
<path d="M139.5 229.9H91.6C88.7 229.9 86.4 227.5 86.4 224.7V208.9C86.4 206 88.8 203.7 91.6 203.7H139.5C142.4 203.7 144.7 206.1 144.7 208.9V224.7C144.7 227.5 142.4 229.9 139.5 229.9ZM91.6 205.6C89.8 205.6 88.4 207.1 88.4 208.8V224.6C88.4 226.4 89.9 227.8 91.6 227.8H139.5C141.3 227.8 142.7 226.3 142.7 224.6V208.8C142.7 207 141.2 205.6 139.5 205.6H91.6Z" fill="#112544"/>
<path d="M142.2 136.6C123.6 152.8 94.9 148.8 81.4 128C87.6 126.2 94.4 125.5 102 126C102.2 126 102.4 126 102.5 126C112.2 126.4 120.4 128.2 127.2 130.5C133.1 131.9 138 134 142.2 136.6Z" fill="#8D95FF"/>
<path d="M127 97.1C126.9 97 127 96.8 127.1 96.7L127.2 96.6C127.3 96.5 127.5 96.6 127.6 96.7C127.7 96.8 127.7 96.9 127.7 96.9C127.6 97.2 127.1 97.4 127 97.1ZM121.8 98.2C121.5 98.2 121.3 98.2 121 98.2C120.8 98.2 120.7 98 120.8 97.8C120.9 97.7 121 97.6 121.1 97.6C121.4 97.6 121.6 97.6 121.9 97.6C122.2 97.7 122.2 98.2 121.8 98.2Z" fill="#FF987A"/>
<path d="M122.3 98.3002C122 98.3002 121.9 98.3002 121.8 98.3002C121.6 98.3002 121.5 98.2002 121.5 98.0002C121.5 97.8002 121.6 97.7002 121.8 97.7002C122.2 97.7002 122.7 97.7002 123.1 97.7002C123.5 97.7002 123.5 98.3002 123.1 98.3002C122.8 98.2002 122.6 98.3002 122.3 98.3002Z" fill="#FF987A"/>
<path d="M123.3 98.2C122.9 98.2 122.9 97.6 123.3 97.6C123.5 97.6 123.7 97.6 124 97.5C124.2 97.5 124.3 97.6 124.3 97.8C124.3 98 124.2 98.1 124 98.1C123.7 98.2 123.5 98.2 123.3 98.2Z" fill="#FF987A"/>
<path d="M103 129.1C104.2 130.7 105.9 132.7 108 134.4C114.1 139.2 123.1 136.3 125.1 128.8L127.5 120.1C127.5 120.1 134.8 121.5 136.9 114.5C137.5 112.5 137.2 109.1 136.4 105.3C136.1 103.9 135.8 102.3 135.4 100.8C134.5 97.3 133.4 93.7 132.3 90.5C130.3 91.6 127.3 92.2 122.9 91.7C122.9 91.7 120.5 97.4 112.5 94.1C112.5 94.1 117 102.3 109.5 105.2C108.2 105.7 106.6 105.5 105.1 104.7C105.6 107 106.5 107.9 108.2 109.6L102.4 124.2C101.7 125.8 101.9 127.7 103 129.1Z" fill="#FCBBA4"/>
<path d="M107.4 135.3C105.6 133.8 103.8 132 102.2 129.8C101.4 128.7 101 127.4 101 126.1C101 125.5 101.5 125.1 102 125.1C102.6 125.1 103 125.6 103 126.1C103 127 103.3 127.9 103.8 128.6C104.8 130 106.5 132.1 108.7 133.8C114 138 121.7 135.7 124 129.6C124.2 129.1 124.8 128.8 125.3 129C125.8 129.2 126.1 129.8 125.9 130.3C123.1 137.5 113.8 140.3 107.4 135.3ZM134.9 77.9C136.8 82 138.4 93.5001 122.9 91.6001C122.9 91.6001 120.5 97.3001 112.5 94.0001C112.5 94.0001 117 102.2 109.5 105.1C102 108 88.3 87.2001 103 84.1001C103 84.1001 101.8 79.4001 107.1 80.8001C107.1 80.8001 108.4 70.8001 118.5 76.1001C118.5 76.2001 129.5 66.1 134.9 77.9Z" fill="#112544"/>
<path d="M134.2 96.2002C133.6 94.2002 133 92.3002 132.4 90.5002C135.1 89.0002 136.1 86.3002 136.1 83.7002C137.8 86.2002 140.9 92.3002 134.2 96.2002ZM123.7 101.4C123.9 102.2 124.6 102.6 125.1 102.5C125.7 102.3 125.9 101.6 125.7 100.8C125.5 100.1 124.8 99.6002 124.3 99.7002C123.7 99.9002 123.5 100.6 123.7 101.4ZM132.6 99.4002C132.8 100.2 133.5 100.6 134 100.5C134.6 100.3 134.8 99.6002 134.6 98.8002C134.4 98.1002 133.7 97.6002 133.2 97.7002C132.6 97.9002 132.4 98.6002 132.6 99.4002ZM120.9 97.5002C120.4 97.8002 120.5 98.2002 121.2 98.3002C122.8 98.5002 124.6 98.1002 125.8 97.0002C126.2 96.6002 126 96.2002 125.5 96.1002C125.1 96.0002 124.5 96.2002 124.1 96.2002C123 96.5002 121.9 96.9002 120.9 97.5002Z" fill="#112544"/>
<path d="M129.9 95.0003C129.4 95.3003 129.5 95.7003 130.2 95.8003C131.8 96.0003 133.6 95.6003 134.8 94.5003C135.2 94.1003 135 93.7003 134.5 93.6003C134.1 93.5003 133.5 93.7003 133.1 93.7003C132 93.9003 130.9 94.4003 129.9 95.0003Z" fill="#112544"/>
<path d="M129 112.8C128.5 112.5 128.4 111.9 128.8 111.4C129.1 110.9 129.7 110.8 130.2 111.2C132.2 112.6 133.2 111.4 133.3 111.2C133.6 110.8 134.3 110.7 134.7 111C135.1 111.3 135.2 112 134.9 112.4C133.7 113.9 131.4 114.4 129 112.8ZM127.5 120.1C127.5 120.1 121.8 119.3 116.6 115.1C116.2 114.8 115.7 115.2 115.9 115.6C117.1 118.2 120.1 123.1 126.2 124.5L127.5 120.1Z" fill="#E2805D"/>
<path d="M102.3 105.4C103.3 108.7 106.2 110.9 108.9 110.3C111.6 109.7 112.9 106.6 111.9 103.3C110.9 99.9999 108 97.7999 105.3 98.3999C102.7 98.8999 101.3 102.1 102.3 105.4Z" fill="#FCBBA4"/>
<path d="M106.8 105.9L106.1 104.7C105.8 104.2 106 103.6 106.4 103.3C106.9 103 107.5 103.2 107.8 103.6L108.5 104.8C108.8 105.3 108.6 105.9 108.2 106.2C107.7 106.5 107.1 106.3 106.8 105.9ZM129.5 106.1C129.4 105.6 129.8 105.1 130.4 105C130.8 105 131.2 104.9 131.6 104.8C131.5 104 130.2 102.1 128.7 100.4C128.3 100 128.4 99.4002 128.8 99.0002C129.2 98.6002 129.8 98.7002 130.2 99.1002C131.4 100.4 134.2 103.7 133.6 105.6C133.5 106 133.1 106.6 132.2 106.8C131.7 106.9 131.2 107 130.7 107C130.1 107 129.6 106.7 129.5 106.1Z" fill="#E2805D"/>
<path d="M115.5 147.5C92.5 147.5 73.8 128.8 73.8 105.8C73.8 82.8001 92.5 64.1001 115.5 64.1001C138.5 64.1001 157.2 82.8001 157.2 105.8C157.3 128.8 138.5 147.5 115.5 147.5ZM115.5 66.1001C93.6 66.1001 75.8 83.9001 75.8 105.8C75.8 127.7 93.6 145.5 115.5 145.5C137.4 145.5 155.2 127.7 155.2 105.8C155.3 83.9001 137.4 66.1001 115.5 66.1001Z" fill="#112544"/>
<path d="M320.2 283.8C306.8 275.1 291.7 265.3 275.7 271.3C267.7 274.3 260.3 275.5 253.6 274.8C253.1 274.7 252.6 274.3 252.7 273.7C252.8 273.2 253.2 272.8 253.8 272.8C260.1 273.4 267.2 272.3 275 269.4C292 263 307.6 273.1 321.3 282.1C331.9 289 341 294.9 348.2 291.5C356.2 287.7 366.3 250 375.8 188.2C375.9 187.7 376.4 187.3 376.9 187.4C377.4 187.5 377.8 188 377.7 188.5C370.8 233.4 360.2 287.9 349 293.3C340.2 297.5 329.2 289.6 320.2 283.8Z" fill="#112544"/>
<path d="M271.5 164.3C276.1 203.4 248 220.8 248 220.8C255.1 235 254.4 264.7 253 284.8C252.1 296.6 251 305 251 305C237.7 299.4 226.8 301.1 217.7 308.8C206.9 277.5 203.8 249.2 204.4 227.8C204.8 213.9 206.9 203 209.5 196C221.7 163.7 251.3 127.4 303.5 133.2L271.5 164.3Z" fill="#66D3D8"/>
<path d="M253 284.9C252.1 296.7 251 305.1 251 305.1C237.7 299.5 226.8 301.2 217.7 308.9C206.9 277.6 203.8 249.3 204.4 227.9C205.1 227.8 205.8 227.8 206.5 228C209.8 228.9 211 232.7 211.7 236C214.4 249.6 215.5 263.4 215 277.2C214.9 280.5 214.7 284 215.9 287.1C217.1 290.2 220.1 292.9 223.4 292.6C228.7 292 230.6 285 235.1 282.2C238.2 280.3 242.2 280.6 245.7 281.8C248.2 282.6 250.5 283.8 253 284.9Z" fill="#47B6C3"/>
<path d="M217.7 309.9C217.4 309.9 217.1 309.8 216.9 309.5C216.5 309.1 216.6 308.4 217 308.1C226.4 300.1 237.5 298.7 250.2 303.6C251.3 294.6 257.2 241.4 247.1 221.2C246.9 220.7 247 220.2 247.5 219.9C247.8 219.7 275 202.3 270.5 164.4C270.4 163.9 270.8 163.4 271.4 163.3C272 163.2 272.4 163.6 272.5 164.2C276.7 199.8 253.8 218 249.3 221.2C260 244.3 252.3 302.7 252 305.3C252 305.6 251.8 305.9 251.5 306C251.2 306.2 250.9 306.2 250.6 306.1C238.1 300.8 227.5 302 218.3 309.7C218.1 309.8 217.9 309.9 217.7 309.9Z" fill="#112544"/>
<path d="M518.8 175.6C523.5 195.8 510.8 212.2 490.6 212.2C479.1 212.2 467.6 206.9 459 198.6C466.9 204.5 476.3 208.1 485.8 208.1C506 208.1 518.6 191.7 514 171.5C512 162.8 507.1 154.8 500.6 148.5C509.5 155.2 516.3 164.8 518.8 175.6Z" fill="#E1E5FF"/>
<path d="M490.6 213.2C470 213.2 449.4 196.4 444.6 175.8C439.8 154.8 453 138 473.8 138C494.4 138 515.1 154.8 519.8 175.4C524.6 196.4 511.4 213.2 490.6 213.2ZM473.8 140C454.3 140 442.1 155.7 446.6 175.4C451.1 195.2 470.9 211.2 490.6 211.2C510.1 211.2 522.4 195.6 517.8 175.8C513.3 156 493.5 140 473.8 140Z" fill="#112544"/>
<path d="M506.9 175.6C510 189.2 501.5 200.3 487.9 200.3C474.3 200.3 460.7 189.3 457.6 175.6C454.5 162 463 150.9 476.6 150.9C490.2 150.9 503.7 161.9 506.9 175.6Z" fill="#66D3D8"/>
<path d="M506.9 175.6C510 189.2 501.5 200.3 487.9 200.3C478.7 200.3 469.5 195.3 463.6 187.8C487.2 211.2 519.5 187.3 498.3 160.5C502.4 164.6 505.6 169.9 506.9 175.6Z" fill="#47B6C3"/>
<path d="M477 181.3L471.8 175C470.6 173.6 470.7 171.8 471.9 171C473.1 170.2 475 170.6 476.2 172L479.2 175.6L487 169.1C488.1 168.2 490 168.5 491.2 169.8C492.4 171.1 492.5 172.9 491.4 173.9L481.5 182.3C480.2 183.2 478.1 182.6 477 181.3Z" fill="white"/>
<path d="M434.9 64.9001L413.4 37.3001C413.1 36.9001 413.1 36.2001 413.6 35.9001C414 35.6001 414.7 35.6001 415 36.1001L436.5 63.7001C436.8 64.1001 436.8 64.8001 436.3 65.1001C435.9 65.4001 435.3 65.3001 434.9 64.9001ZM448.1 81.8001L442.8 75.0001C442.5 74.6001 442.5 73.9001 443 73.6001C443.4 73.3001 444.1 73.3001 444.4 73.8001L449.7 80.6001C450 81.0001 450 81.7001 449.5 82.0001C449.1 82.3001 448.4 82.2001 448.1 81.8001ZM397.3 90.0001L394.2 89.3001C393.7 89.2001 393.3 88.6001 393.4 88.1001C393.5 87.6001 394.1 87.2001 394.6 87.4001L397.7 88.1001C398.2 88.2001 398.6 88.8001 398.5 89.3001C398.4 89.8001 397.8 90.2001 397.3 90.0001ZM437.7 99.4001L406 92.0001C405.5 91.9001 405.1 91.3001 405.3 90.8001C405.4 90.3001 406 89.9001 406.5 90.1001L438.2 97.4001C438.7 97.5001 439.1 98.1001 438.9 98.6001C438.8 99.2001 438.2 99.5001 437.7 99.4001ZM469 41.6001C468.5 41.5001 468.1 41.0001 468.1 40.5001L468.7 36.0001C468.8 35.5001 469.3 35.1001 469.8 35.1001C470.3 35.2001 470.7 35.7001 470.7 36.2001L470.1 40.7001C470.1 41.3001 469.6 41.7001 469 41.6001ZM464.2 79.0001C463.7 78.9001 463.3 78.4001 463.3 77.9001L466.4 53.7001C466.5 53.2001 467 52.8001 467.5 52.8001C468 52.9001 468.4 53.4001 468.4 53.9001L465.3 78.1001C465.2 78.7001 464.7 79.1001 464.2 79.0001Z" fill="#CCD2FF"/>
<path d="M99.4 370.3C99.4 379.8 104.5 387.6 103.4 397.3C102.4 406.3 95.5 415.9 86.6 420.7C75.7 426.5 63.7 424.2 56.8 417.9C56.4 417.5 55.9 417.1 55.5 416.7C72.7 424 94.3 409.3 98.2 392.8C100.4 383.5 96.2 375.9 97.3 366.7C98.5 356.2 106.6 345.1 112.8 336.8C111.1 339.6 99.4 358.7 99.4 370.3Z" fill="#E1E5FF"/>
<path d="M56.1 418.6C52.1 414.9 47.1 411.6 46.3 405.4C45.4 399.1 48.7 391.6 54.3 386.6C60.9 380.9 70.2 378.5 74.1 371.5C77.1 366.2 75.7 361.2 74.6 345.4C72.8 323.3 74.1 299.8 95.3 287.7C109 279.9 122.6 284.5 126.4 295.3C131.2 308.8 120.8 325.6 113.8 336.9C107.8 346.6 100.3 358.7 100.3 370.1C100.3 379.4 105.4 387.3 104.3 397.2C103.2 406.5 96.1 416.5 87 421.3C76.2 427.4 63.6 425.4 56.1 418.6ZM96.3 289.6C76 301.2 74.8 323.8 76.6 345.4C77.9 361.6 79.1 367 75.9 372.6C71.7 380.2 62 382.7 55.7 388.2C50.6 392.6 47.6 399.6 48.3 405.2C49 410.5 53.7 413.7 57.5 417.2C63.5 422.7 75 425.8 86.1 419.8C94.7 415.2 101.3 405.9 102.3 397.2C103.4 387.8 98.3 379.9 98.3 370.3C98.3 358.4 105.9 346.1 112.1 336.1C118.6 325.5 129 309 124.5 296.2C120.7 285 107.3 283.3 96.3 289.6Z" fill="#CCD2FF"/>
<path d="M63.2 464.7C62.8 464.7 62.5 464.5 62.3 464.2C62.1 463.9 45 431.8 74.3 387.4C100.5 347.8 98.2 314.5 98.2 314.2C98.2 313.6 98.6 313.2 99.1 313.1C99.7 313.1 100.1 313.5 100.2 314C100.2 314.3 102.6 348.3 76 388.5C47.3 431.9 63.9 462.9 64.1 463.2C64.4 463.9 64 464.7 63.2 464.7Z" fill="#CCD2FF"/>
<path d="M61.4 403.7C57.5 401.9 51.6 403.5 49.2 399.7C47.9 397.5 48.1 394.2 48.5 391C50.1 376 51.4 366.7 49.8 358.7C44.1 330.8 9.29997 353.5 21.1 378.8C23.3 383.5 26.6 387.3 29.3 391.6C32 395.9 34.2 401 34 407C33.7 413.9 30.3 421.5 30.7 428.2C31.1 434.4 35.2 439 40.6 439.3C47.3 439.7 54.9 433.6 59.4 426.5C61.9 422.6 65.1 418.4 65.7 413.9C66.4 409.4 64.7 405.2 61.4 403.7Z" fill="#CCD2FF"/>
<path d="M40.6 439.9C34.9 439.6 30.7 434.8 30.2 428.3C29.8 421.5 33.2 413.9 33.5 407C33.7 402 32.2 397.2 28.9 391.9C26.2 387.6 23 383.8 20.7 379C18.8 375 17.1 368.8 19.1 361.7C24.2 344.1 45.9 337.6 50.3 358.6C52 366.7 50.6 376 49 391C48.7 393.6 48.4 397.2 49.7 399.3C51 401.5 53.7 401.8 56.4 402.1C58.2 402.3 60 402.5 61.6 403.2C65.1 404.8 67 409.2 66.2 414.1C65.5 418.8 62.3 423 59.8 426.9C55.8 433.3 48 440.3 40.6 439.9ZM27.6 350.5C24.2 353.4 21.4 357.7 20.1 362C18.1 368.8 19.8 374.8 21.6 378.6C23.8 383.3 27 387.1 29.7 391.4C33.1 396.9 34.6 401.9 34.4 407.1C34.1 413.9 30.7 421.8 31.1 428.3C31.5 434.3 35.4 438.7 40.5 438.9C47.4 439.3 54.9 432.7 58.9 426.4C61.4 422.5 64.5 418.4 65.2 414C65.8 409.6 64.2 405.6 61.1 404.2C59.7 403.5 57.9 403.4 56.2 403.2C53.3 402.9 50.3 402.6 48.7 400C47.3 397.7 47.5 394.6 47.9 391C49.4 376.4 50.9 366.9 49.2 358.9C46.7 346.2 36.6 342.9 27.6 350.5Z" fill="#CCD2FF"/>
<path d="M57 438.2C56.6 428 53.6 419.2 47.9 411.9C32.2 391.8 34.6 365.9 34.7 365.7C34.8 365.2 35.3 364.8 35.8 364.8C36.3 364.9 36.7 365.3 36.7 365.9C36.7 366.2 34.3 391.3 49.5 410.7C55.4 418.3 58.6 427.5 59 438.2C59 438.8 58.6 439.2 58 439.2C57.5 439.2 57 438.8 57 438.2ZM76.2 464.7H52.9C52.3 464.7 51.9 464.3 51.9 463.7C51.9 463.1 52.3 462.7 52.9 462.7H76.2C76.8 462.7 77.2 463.1 77.2 463.7C77.2 464.3 76.7 464.7 76.2 464.7Z" fill="#CCD2FF"/>
<path d="M294.2 30.7999H285.7C285.1 30.7999 284.7 30.3999 284.7 29.7999C284.7 29.1999 285.1 28.7999 285.7 28.7999H292.9C289.7 15.2999 295.4 7.39992 306.9 13.5999C305.9 -7.70008 329.7 -1.60008 345.2 16.4999C346 12.6999 349.3 12.9999 352.9 14.4999H361.1C361.7 14.4999 362.1 14.8999 362.1 15.4999C362.1 16.0999 361.7 16.4999 361.1 16.4999H352.7C351 16.4999 346.8 12.7999 347.1 19.0999C347.1 20.0999 345.9 20.4999 345.3 19.7999C331.2 1.99992 306.6 -7.00008 309.1 15.3999C309.2 16.1999 308.3 16.7999 307.6 16.3999C296.1 9.09992 291.7 16.5999 295.2 29.6999C295.3 30.1999 294.8 30.7999 294.2 30.7999Z" fill="#CCD2FF"/>
</svg>
