<svg width="196" height="60" viewBox="0 0 196 60" fill="none" xmlns="http://www.w3.org/2000/svg">
<path d="M60.88 48.48C59.12 48.48 57.456 48.32 55.888 48C54.32 47.648 52.96 47.232 51.808 46.752C50.656 46.272 49.808 45.824 49.264 45.408V36.816C50.8 37.68 52.736 38.496 55.072 39.264C57.408 40 60 40.368 62.848 40.368C64 40.368 64.848 40.224 65.392 39.936C65.968 39.616 66.256 39.072 66.256 38.304C66.256 37.472 65.616 36.784 64.336 36.24C63.088 35.664 61.104 34.96 58.384 34.128C56.272 33.456 54.464 32.72 52.96 31.92C51.488 31.088 50.352 30.064 49.552 28.848C48.784 27.6 48.4 26.016 48.4 24.096C48.4 22.112 48.912 20.32 49.936 18.72C50.96 17.12 52.56 15.856 54.736 14.928C56.912 14 59.696 13.536 63.088 13.536C64.112 13.536 65.2 13.584 66.352 13.68C67.536 13.744 68.48 13.84 69.184 13.968L74.608 17.952L72.736 23.808L61.36 20.688C60.048 20.688 59.072 20.96 58.432 21.504C57.824 22.048 57.52 22.704 57.52 23.472C57.52 24.4 58.048 25.136 59.104 25.68C60.16 26.224 61.68 26.768 63.664 27.312C66.8 28.176 69.232 29.136 70.96 30.192C72.688 31.248 73.904 32.448 74.608 33.792C75.312 35.104 75.664 36.592 75.664 38.256C75.664 41.328 74.432 43.808 71.968 45.696C69.504 47.552 65.808 48.48 60.88 48.48ZM88.7778 48.48C86.6018 48.48 84.8578 47.84 83.5458 46.56C82.2338 45.28 81.5778 43.664 81.5778 41.712V31.248H78.0738V26.688L81.0978 24.336L84.5058 18.384H90.1698V25.344H96.8898V31.584H90.1698V41.856L96.8898 41.808V47.04C96.8898 47.04 96.5058 47.168 95.7378 47.424C95.0018 47.648 94.0258 47.872 92.8098 48.096C91.5938 48.352 90.2498 48.48 88.7778 48.48ZM107.433 48.48C105.513 48.48 104.025 48.112 102.969 47.376C101.945 46.64 101.225 45.584 100.809 44.208C100.425 42.8 100.233 41.12 100.233 39.168V25.296H108.873V37.92C108.873 39.104 109.097 40.032 109.545 40.704C110.025 41.376 110.729 41.712 111.657 41.712C112.521 41.712 113.305 41.344 114.009 40.608C114.745 39.872 115.113 38.8 115.113 37.392V25.296H123.753V40.272L124.76 45.072L123.753 48H115.641V45.648L115.161 45.408C114.745 45.824 114.137 46.272 113.337 46.752C112.569 47.232 111.673 47.648 110.648 48C109.657 48.32 108.585 48.48 107.433 48.48ZM136.804 48.48C135.3 48.48 133.844 48.096 132.436 47.328C131.06 46.56 129.924 45.344 129.028 43.68C128.132 42.016 127.684 39.84 127.684 37.152C127.684 34.176 128.116 31.792 128.98 30C129.876 28.208 131.028 26.912 132.436 26.112C133.844 25.28 135.3 24.864 136.804 24.864C139.076 24.864 140.676 25.056 141.604 25.44C142.564 25.824 143.044 26.016 143.044 26.016L142.564 16.944L143.044 14.064H151.732V40.32L152.692 45.12L151.732 48.048H143.524V45.696L143.044 45.456C143.044 45.456 142.804 45.712 142.324 46.224C141.844 46.704 141.14 47.2 140.212 47.712C139.284 48.224 138.148 48.48 136.804 48.48ZM140.404 41.712L143.044 41.04V34.032C143.044 33.296 142.804 32.72 142.324 32.304C141.844 31.856 141.204 31.632 140.404 31.632C139.22 31.632 138.324 32.032 137.716 32.832C137.108 33.6 136.804 34.88 136.804 36.672C136.804 38.432 137.156 39.712 137.86 40.512C138.564 41.312 139.412 41.712 140.404 41.712ZM161.809 23.952L155.713 17.808L161.809 11.712L167.905 17.808L161.809 23.952ZM157.489 48V32.112L156.481 28.272L157.441 25.344H166.129V48H157.489ZM182.113 48.48C178.209 48.48 175.185 47.552 173.041 45.696C170.897 43.84 169.825 40.832 169.825 36.672C169.825 32.48 170.897 29.472 173.041 27.648C175.185 25.792 178.209 24.864 182.113 24.864C186.113 24.864 189.137 25.792 191.185 27.648C193.265 29.472 194.305 32.48 194.305 36.672C194.305 40.832 193.265 43.84 191.185 45.696C189.137 47.552 186.113 48.48 182.113 48.48ZM182.113 42.24C183.425 42.24 184.337 41.76 184.849 40.8C185.361 39.808 185.617 38.432 185.617 36.672C185.617 34.88 185.361 33.504 184.849 32.544C184.337 31.584 183.425 31.104 182.113 31.104C180.769 31.104 179.825 31.584 179.281 32.544C178.769 33.504 178.513 34.88 178.513 36.672C178.513 38.432 178.769 39.808 179.281 40.8C179.825 41.76 180.769 42.24 182.113 42.24Z" fill="white"/>
<circle cx="20" cy="30" r="20" fill="url(#paint0_linear_44_4)"/>
<defs>
<linearGradient id="paint0_linear_44_4" x1="39.0617" y1="50" x2="0.938267" y2="10" gradientUnits="userSpaceOnUse">
<stop stop-color="#E05200" stop-opacity="0.839"/>
<stop offset="1" stop-color="#5C0258"/>
</linearGradient>
</defs>
</svg>
